<?xml version="1.0" encoding="UTF-8"?>
<svg width="164px" height="160px" viewBox="0 0 164 160" version="1.1" xmlns="http://www.w3.org/2000/svg" xmlns:xlink="http://www.w3.org/1999/xlink">
    <title>illus-shared-catalogs</title>
    <g id="illus-shared-catalogs" stroke="none" stroke-width="1" fill="none" fill-rule="evenodd">
        <g id="illus-pim" transform="translate(0.000000, 2.000000)">
            <path d="M143.823,85.9 C143.823,114.985871 126.303526,141.208209 99.4319168,152.339451 C72.5603082,163.470692 41.6293469,157.318701 21.0622443,136.75217 C0.495141714,116.185639 -5.65771034,85.2548492 5.47278374,58.382931 C16.6032778,31.5110127 42.8251291,13.99 71.911,13.99 C111.625891,13.99 143.821343,46.1851089 143.823,85.9" id="Path" fill="#E0F2FF" fill-rule="nonzero"></path>
            <path d="M161.2,72.35 C161.2,101.61253 143.571855,127.99342 116.536609,139.191239 C89.5013628,150.389057 58.3827752,144.19857 37.6914708,123.506408 C17.0001665,102.814245 10.8109701,71.6954012 22.0099094,44.6606195 C33.2088488,17.6258379 59.5904701,0 88.853,0 C128.809859,0 161.2,32.3931411 161.2,72.35" id="Path" fill="#FFFFFF" fill-rule="nonzero"></path>
            <path d="M161.2,72.35 C161.2,101.61253 143.571855,127.99342 116.536609,139.191239 C89.5013628,150.389057 58.3827752,144.19857 37.6914708,123.506408 C17.0001665,102.814245 10.8109701,71.6954012 22.0099094,44.6606195 C33.2088488,17.6258379 59.5904701,0 88.853,0 C128.809859,0 161.2,32.3931411 161.2,72.35 Z" id="Path" stroke="#5E63B5" stroke-width="4"></path>
            <path d="M111.884,108.646 C112.201,109.582 112.478,110.218 112.56,110.429 C112.587,110.453 112.535,110.419 112.56,110.429 L112.56,110.429 C112.56,110.429 112.56,110.429 112.56,110.429 C110.445,89.978 122.04,81.456 125.769,67.873 C125.791125,67.6469754 125.830574,67.4229835 125.887,67.203 C125.965017,66.8960826 126.0271,66.5853338 126.073,66.272 C126.628,62.513 125.088,58.138 122.173,53.583 C122.159102,53.5572536 122.143396,53.5325249 122.126,53.509 C121.888,53.13 121.626,52.751 121.373,52.372 C121.373,52.372 121.363,52.365 121.363,52.357 C120.883,51.666 120.371,50.968 119.836,50.268 C119.781,50.196 119.729,50.119 119.672,50.05 C119.521,49.859 119.365,49.668 119.217,49.478 C119.069,49.288 118.907,49.078 118.751,48.889 C118.595,48.7 118.435,48.505 118.274,48.317 C118.113,48.129 117.944,47.923 117.774,47.725 C117.663,47.591 117.536,47.453 117.415,47.311 C112.390337,41.7031894 106.766079,36.6630866 100.643,32.281 L100.643,32.281 C101.480545,39.4354814 101.547596,46.6592044 100.843,53.828 C99.6805277,62.1136823 97.2458532,70.1702355 93.625,77.713 C85.2797652,77.0961991 77.0798159,75.1944585 69.315,72.075 C62.7258427,69.1253494 56.4790387,65.4639154 50.686,61.156 C50.755,61.795 50.832,62.429 50.906,63.065 C50.928,63.256 50.958,63.444 50.983,63.635 C51.042,64.09 51.097,64.543 51.166,64.999 C51.193,65.207 51.223,65.417 51.257,65.625 C51.324,66.083 51.391,66.537 51.465,66.99 C51.495,67.17 51.525,67.356 51.555,67.542 C51.649,68.116 51.745,68.686 51.855,69.255 C51.8587156,69.3117224 51.8677554,69.3679698 51.882,69.423 C51.998,70.087 52.125,70.743 52.256,71.397 C52.2639134,71.4478777 52.2745959,71.4982859 52.288,71.548 C52.407,72.137 52.526,72.714 52.654,73.298 C52.679,73.417 52.706,73.533 52.729,73.652 C52.847,74.184 52.971,74.712 53.095,75.239 C53.125,75.339 53.15,75.439 53.174,75.549 C53.323,76.155 53.474,76.762 53.627,77.358 C53.6281131,77.3605505 53.6281131,77.3634495 53.627,77.366 C54.137,79.2873333 54.695,81.1383333 55.301,82.919 C55.3092047,82.9401632 55.3158883,82.9618851 55.321,82.984 C56.2605291,85.7747169 57.4270972,88.4837768 58.809,91.084 C59.002,91.43 59.198,91.772 59.394,92.106 C59.401,92.116 59.401,92.133 59.413,92.146 L59.413,92.146 C59.589,92.446 59.772,92.746 59.95,93.035 L59.958,93.042 C59.9648326,93.0516749 59.971174,93.0616876 59.977,93.072 C60.177,93.384 60.377,93.691 60.577,93.98 L60.577,93.98 C60.604,94.022 60.632,94.057 60.661,94.096 C60.6590247,94.1001082 60.6590247,94.1048918 60.661,94.109 C60.923,94.487 61.195,94.854 61.461,95.209 C61.513,95.266 61.555,95.323 61.6,95.378 C61.612,95.398 61.632,95.417 61.647,95.445 C61.957,95.836 62.276,96.215 62.605,96.569 C62.831,96.821 63.063,97.056 63.296,97.289 C63.396,97.389 63.496,97.477 63.596,97.571 C63.742,97.71 63.888,97.839 64.037,97.971 C64.146,98.071 64.26,98.152 64.376,98.246 C64.515,98.365 64.661,98.477 64.804,98.588 C64.918,98.675 65.03,98.754 65.148,98.833 C65.297,98.94 65.443,99.041 65.592,99.14 C65.705,99.209 65.824,99.284 65.941,99.353 C66.097,99.447 66.26,99.534 66.414,99.623 C66.525,99.682 66.636,99.739 66.745,99.794 C66.929,99.88 67.109,99.96 67.297,100.039 C67.382,100.071 67.478,100.121 67.572,100.153 C67.8485166,100.265044 68.1313296,100.360873 68.419,100.44 C68.61,100.497 68.773,100.556 68.927,100.616 C82.581,104.223 95.876,98.509 112.549,110.428" id="Path" fill="#FCCE76" fill-rule="nonzero"></path>
        </g>
    </g>
</svg>
