<svg width="386" height="372" xmlns="http://www.w3.org/2000/svg">
  <g fill="none" fill-rule="evenodd">
    <path d="M359.704 269.903c0 41.292-24.872 78.52-63.02 94.322-38.15 15.803-82.061 7.069-111.26-22.129-29.198-29.197-37.933-73.109-22.132-111.258 15.802-38.15 53.028-63.023 94.32-63.023 56.383 0 102.09 45.706 102.092 102.088" fill="#E0F2FF" fill-rule="nonzero"/>
    <path d="M382 254.093c0 41.292-24.875 78.518-63.024 94.319-38.15 15.8-82.06 7.065-111.258-22.133-29.197-29.199-37.93-73.11-22.128-111.259 15.803-38.148 53.03-63.02 94.322-63.02C336.295 152 382 197.71 382 254.093" fill="#FFF" fill-rule="nonzero"/>
    <path d="M382 254.093c0 41.292-24.875 78.518-63.024 94.319-38.15 15.8-82.06 7.065-111.258-22.133-29.197-29.199-37.93-73.11-22.128-111.259 15.803-38.148 53.03-63.02 94.322-63.02C336.295 152 382 197.71 382 254.093Z" stroke="#5E63B5" stroke-width="8"/>
    <g>
      <path d="M226 139.495c0 45.906-27.53 87.293-69.754 104.861-42.224 17.569-90.827 7.859-123.145-24.601S-8.885 138.477 8.604 96.065C26.094 53.653 67.298 26 113.002 26 175.407 26 225.997 76.813 226 139.495" fill="#E0F2FF" fill-rule="nonzero"/>
      <path d="M254 118c0 46.108-27.776 87.676-70.375 105.32-42.599 17.644-91.631 7.89-124.234-24.714-32.603-32.604-42.355-81.638-24.709-124.235C52.328 31.773 93.897 4 140.005 4 202.964 4 254 55.041 254 118" fill="#FFF" fill-rule="nonzero"/>
      <path d="M254 118c0 46.108-27.776 87.676-70.375 105.32-42.599 17.644-91.631 7.89-124.234-24.714-32.603-32.604-42.355-81.638-24.709-124.235C52.328 31.773 93.897 4 140.005 4 202.964 4 254 55.041 254 118Z" stroke="#5E63B5" stroke-width="8"/>
      <path d="M176.459 175.18c.5 1.473.936 2.474 1.066 2.806.042.038-.04-.016 0 0-3.334-32.185 14.942-45.596 20.82-66.973.034-.355.096-.708.185-1.054.123-.483.221-.972.293-1.465.875-5.916-1.552-12.801-6.147-19.97a.974.974 0 0 0-.074-.116c-.375-.597-.788-1.193-1.187-1.79 0 0-.015-.01-.015-.023a89.859 89.859 0 0 0-2.407-3.288c-.087-.113-.169-.234-.259-.343-.238-.3-.484-.601-.717-.9-.233-.3-.488-.63-.734-.927-.246-.297-.498-.604-.752-.9-.254-.296-.52-.62-.788-.932-.175-.21-.375-.428-.566-.651A162.31 162.31 0 0 0 158.74 55a158.15 158.15 0 0 1 .315 33.91 127.786 127.786 0 0 1-11.376 37.59 128.283 128.283 0 0 1-38.317-8.874A156.12 156.12 0 0 1 80 100.442c.109 1.006.23 2.004.347 3.005.034.3.082.596.121.897.093.716.18 1.429.289 2.146.042.328.09.658.143.985a130.152 130.152 0 0 0 .47 3.017c.148.904.3 1.8.473 2.696.005.09.02.178.042.265a127.396 127.396 0 0 0 .64 3.344c.188.927.375 1.835.577 2.754.04.187.082.37.118.557.186.837.382 1.668.577 2.498.047.157.087.314.125.487.234.954.472 1.91.714 2.847a.016.016 0 0 1 0 .013 133.024 133.024 0 0 0 2.638 8.74.75.75 0 0 1 .032.101 84.784 84.784 0 0 0 5.497 12.748 84.9 84.9 0 0 0 .922 1.608c.011.016.011.043.03.063.278.472.566.944.847 1.4l.012.01a48.992 48.992 0 0 0 .976 1.476c.043.067.087.122.132.183a.024.024 0 0 0 0 .02 57.9 57.9 0 0 0 1.261 1.732c.082.09.148.179.22.266.018.031.05.06.074.105a29.77 29.77 0 0 0 1.51 1.769c.356.396.721.766 1.089 1.133.157.157.315.296.472.444.23.219.46.422.696.63.171.157.351.284.534.432.219.187.45.364.675.538.18.137.356.262.542.386.235.168.465.327.7.483.178.109.365.227.55.335.246.148.502.285.745.425.175.093.35.183.522.27.29.135.574.26.87.385.134.05.285.129.433.18.436.176.882.326 1.335.45.301.09.558.183.801.278 21.521 5.676 42.477-3.316 68.756 15.442" fill="#5563B6" fill-rule="nonzero"/>
    </g>
    <g fill="#34313F" fill-rule="nonzero">
      <path d="M276.96 256.408h15.609c4.44 0 7.248-2.38 7.248-6.204 0-3.606-2.809-6.204-7.248-6.204h-15.61c-.517 0-.959.431-.959.868v10.672c.07.504.437.868.96.868Zm0 24.592h16.126c4.956 0 7.914-2.452 7.914-6.78 0-3.752-2.809-6.781-7.914-6.781h-16.127c-.517 0-.959.431-.959.867v11.759c.07.576.437.935.96.935Z"/>
      <path d="m333.584 186.268-45.513 45.395h7.44c11.596 0 18.453 7.298 18.453 15.253 0 6.278-4.23 10.873-8.753 12.918-.73.294-.73 1.314.073 1.604 5.25 2.045 8.97 7.518 8.97 13.938 0 9.049-6.054 16.273-17.797 16.273h-32.235c-.51 0-.946-.437-.946-.878v-34.375l-49.962 49.78c-.657.657-.22 1.824.73 1.824h120.123a.81.81 0 0 0 .804-.804v-120.27c.215-.805-.804-1.241-1.387-.658Z"/>
    </g>
  </g>
</svg>
